<svg xmlns="http://www.w3.org/2000/svg" style="width:0;height:0;visibility:hidden;">
    <symbol viewBox='0 0 392 120' id="h-logo-text">
        <g stroke="none" stroke-width="1">
            <path d="M175.428571,15 L175.428571,56.1428571 L172.857143,58.7142857 L175.428571,61.2857143 L175.428571,105 L152.897728,105 L95.875,15 L175.428571,15 Z M39.3035714,15 L96.3262995,105 L16,105 L16,15 L39.3035714,15 Z M85.5892857,15 L142.160714,105 L106.160714,105 L70.0745049,47.7527557 L85.5892857,15 Z" id="Logo" ></path>
            <path d="M228.077078,49.4863549 L241.451952,79.6740067 L235.278933,79.6740067 L232.192424,72.3892157 L218.81755,72.3892157 L215.731041,79.6740067 L209.563407,79.6740067 L221.90406,49.4941585 L228.077078,49.4863549 Z M376.206768,51.5845832 C377.979704,53.1728234 379.37008,55.402067 379.292757,57.82577 C379.328076,59.4755554 378.649369,61.6680576 377.749762,63.0313256 C376.750908,64.4396722 375.726628,65.5214323 374.149443,66.1473525 C375.133756,66.6998405 375.49391,67.3215059 376.206768,68.2145054 C377.281889,69.6720027 378.433579,71.2623409 379.21293,72.9086383 C381.001313,76.5638958 382.419291,78.1386459 383.316461,79.530587 L383.407407,79.6740067 L377.235431,79.6570624 C376.577149,78.5950196 375.636967,78.5395982 375.08526,77.4145613 C373.977969,75.1113293 372.918321,72.9950152 371.577786,70.8282427 C370.98321,69.8711902 369.897625,68.8812411 369.006129,68.2145054 C368.322015,67.7624352 367.897283,67.2557858 367.144244,67.1935593 L366.948804,67.1875503 L363.862816,67.1875503 L363.862816,79.6740067 L358.719502,79.6740067 L358.719502,49.5009967 L370.034792,49.5009967 C372.560518,49.3887485 374.268802,49.9066203 376.206768,51.5845832 Z M209.03901,52.0939752 C210.745953,53.7127915 211.689779,55.9442768 211.61535,58.3335487 C211.700545,60.7343419 210.771387,62.9654243 209.03901,64.5731221 C207.218932,66.1751099 205.056722,67.202642 202.684572,67.1822631 L202.359808,67.1729444 L196.189446,67.1729444 L196.189446,79.6520914 L191.049471,79.6520914 L191.048882,49.5023549 L202.359808,49.4941529 C204.809658,49.3857792 207.206653,50.4148123 209.03901,52.0939752 Z M260.996543,51.577858 C262.769406,53.164769 264.159851,55.9118033 264.082532,58.3334779 C264.11785,59.9818825 263.953438,61.6528811 263.053869,63.0150081 C262.055056,64.4221761 260.516338,65.5030275 258.939218,66.1284239 C259.92349,66.6804494 260.283715,67.3066364 260.996543,68.1988885 C262.071275,69.6554101 263.302847,71.2393323 264.082532,72.8840437 C265.87084,76.5362421 267.214329,78.1054554 268.106499,79.4959503 L268.197182,79.6392352 L262.025206,79.6520914 C261.366951,78.5909375 260.519564,78.6851066 259.967881,77.5610113 C258.860635,75.259707 257.70804,72.9703505 256.367561,70.8053915 C255.772704,69.8493878 254.687106,68.8653684 253.795904,68.1988885 C253.111818,67.7471967 252.687031,67.2366743 251.934012,67.1738389 L251.738579,67.16775 L248.652591,67.16775 L248.652591,79.6520914 L243.509277,79.6520914 L243.509277,49.5010416 L254.824567,49.5010416 C257.35016,49.3890944 259.058558,49.9014818 260.996543,51.577858 Z M293.913751,49.4863549 L282.598461,63.5358967 L296.999739,79.6520914 L289.7991,79.6392352 L275.397822,65.0955285 L275.397822,79.6392352 L270.254508,79.6392352 L270.254508,49.4904604 L275.397822,49.4904604 L275.397822,63.0160195 L276.426484,63.0160195 L286.713111,49.4863549 L293.913751,49.4863549 Z M317.942476,51.3677851 C322.760581,53.9175682 325.789248,58.9844267 325.802295,64.5169289 C325.815258,70.0494311 322.810446,75.131018 318.004383,77.7042944 C312.860397,80.3122378 306.811865,80.3007375 301.677465,77.6732514 C296.866367,75.1581702 293.861467,70.0900925 293.91444,64.5801009 C293.909094,61.9052577 294.616192,59.279079 295.960341,56.9815673 C297.225466,54.7608741 299.046449,52.9256098 301.233869,51.6613061 L301.6018,51.4559073 L301.6018,51.4599128 C306.742913,48.8612437 312.773461,48.8272438 317.942476,51.3677851 Z M350.490946,49.4863549 L355.633514,49.4904081 L355.633514,67.1697141 C355.63285,71.1736592 354.393941,74.3775641 352.033716,76.5291695 C349.673492,78.6807749 346.580727,79.6480111 342.262837,79.6480111 C339.83404,79.7073831 337.272933,79.1155131 335.063242,78.0885903 C333.151091,77.1817543 331.489185,75.7886746 330.434931,73.9301349 C329.351656,71.9338601 328.837975,69.4491117 328.892161,67.1697141 L328.892161,67.1697141 L328.896882,49.4903549 L334.034729,49.4904081 L334.034729,67.1697141 C333.971749,68.6253702 334.483155,69.9987943 335.063242,71.3311003 C335.642811,72.4399264 337.055957,73.3454985 338.148783,73.9301349 C339.420762,74.633318 340.81349,74.483175 342.260899,74.4499418 C343.787006,74.4966662 345.006027,74.6137161 346.376892,73.9301349 C347.512592,73.3568364 348.875512,72.4740393 349.462432,71.3311003 C350.088804,69.8729967 350.565431,68.7590768 350.490946,67.1697141 L350.490946,67.1697141 L350.490946,49.4863549 Z M304.546836,55.6867724 C303.125394,56.4542025 301.938588,57.6015413 301.112029,59.0027027 L300.940468,59.3067907 C300.083925,60.9281003 299.64946,62.7425264 299.678731,64.5801009 C299.651268,66.4203369 300.100368,68.2354288 300.980758,69.8423958 C301.826196,71.3775015 303.085089,72.6339772 304.608743,73.4634155 C306.227452,74.3366503 308.036671,74.7782835 309.867947,74.7471951 C312.580211,74.8455572 315.215935,73.8203067 317.174034,71.9052554 C319.094815,69.9811948 320.133567,67.3230171 320.036527,64.5801009 C320.062963,62.7377451 319.617582,60.9201984 318.744327,59.3067907 C317.903691,57.7626467 316.640419,56.5010474 315.10848,55.6757571 C311.788288,53.960129 307.863575,53.9642223 304.546836,55.6867724 Z M224.990569,55.738265 L219.846387,68.2264781 L230.134751,68.2264781 L224.990569,55.738265 Z M363.862816,53.6572015 L363.862816,63.0313256 L367.977467,63.0309151 C369.276716,63.1082494 370.560811,62.305804 371.577786,61.4664624 C372.462963,60.6455703 373.178821,59.5743968 373.12078,58.3466444 C373.208071,57.1255224 372.48025,56.018467 371.577786,55.2252755 C370.563252,54.4984513 369.441493,53.6863367 368.222548,53.6595971 L367.977467,53.6649788 L363.862816,53.6572015 Z M253.012315,53.6511331 L252.767242,53.6565103 L248.652591,53.6565103 L248.652591,63.0150081 L252.767242,63.0150081 C254.066437,63.0922777 255.350629,62.2900954 256.367561,61.4514563 C257.252702,60.6312513 257.968593,59.5602027 257.910555,58.3334779 C257.997843,57.1133779 257.269988,56.0080272 256.367561,55.2154995 C255.420702,54.537698 254.380328,53.7856626 253.2548,53.6666816 L253.012315,53.6511331 Z M200.303021,53.6538685 L196.189446,53.6538685 L196.189446,63.0132288 L201.331414,63.0132288 C202.593535,63.0914695 203.474224,62.1484769 204.494788,61.3792973 C205.374016,60.5876931 205.843072,59.4176981 205.762387,58.2174488 C205.762387,55.440006 203.768322,53.6538685 200.303021,53.6538685 Z" id="PARKOUR" ></path>
            <path d="M191.048882,15.7885271 L191.048882,42.4595967 L205.845692,42.4595967 L205.845692,40.3259112 L193.162712,40.3259112 L193.162712,15.7885271 L191.048882,15.7885271 Z M226.455534,15.788519 C229.91142,15.7850694 233.296079,16.8950944 235.967769,19.5224768 C238.427938,21.9996464 239.666971,25.5581194 239.666971,29.1235944 C239.666971,32.6890695 238.427938,36.2484775 235.967769,38.725647 C233.382495,41.2685347 229.837311,42.421134 226.455534,42.4646922 C222.955882,42.5097686 219.618685,41.3571692 216.943299,38.725647 C214.492961,36.2429105 213.244097,32.6855832 213.244097,29.1235944 C213.244097,25.5616057 214.492961,22.0052133 216.943299,19.5224768 C219.532514,16.9743506 223.105184,15.7918792 226.455534,15.788519 Z M226.807639,17.91958 L226.467654,17.9222127 C223.502287,17.8567077 220.671303,18.935157 218.575354,21.122741 C216.499536,23.2839729 215.357927,26.0658163 215.357927,29.1240619 C215.357927,32.1823076 216.452854,34.964151 218.528671,37.1253828 L218.528671,37.1253828 L218.575354,37.2771892 C220.671856,39.4648978 223.534869,40.4026387 226.500697,40.3364138 C229.450495,40.4033997 232.296639,39.3135548 234.369975,37.1253828 C236.489438,34.8848843 237.534498,32.0120672 237.553141,29.1292649 C237.572114,26.1952991 236.527054,23.4030035 234.369975,21.122741 C232.296324,18.935161 229.417272,17.8553099 226.467654,17.9222127 Z M273.522226,15.7885271 L273.48825,39.2590684 L253.406866,15.7885271 L251.293036,15.7885271 L251.293036,42.4559642 L253.406866,42.4559642 L253.406866,18.9890555 L273.522226,42.4559642 L275.60208,42.4595967 L275.60208,15.7921596 L273.48825,15.7921596 L273.522226,15.7885271 Z M298.325752,15.7885271 C302.922204,15.7885271 306.471778,17.0399827 308.894902,19.5224768 C313.724583,24.9456615 313.769795,33.2827587 308.961144,38.725647 C306.562765,41.239021 303.264494,42.4595967 298.854209,42.4595967 L298.854209,42.4595967 L289.341975,42.4586885 L289.341975,15.7885271 Z M306.781072,20.5893196 C304.457737,18.3783394 301.48947,17.7890598 298.325752,17.9222127 L298.325752,17.9222127 L291.455805,17.9222127 L291.455805,40.3259112 L298.325752,40.3259112 C301.419838,40.4282972 304.49118,39.7998056 306.781072,37.6588042 C309.041747,35.4859546 310.609116,32.3053256 310.480274,29.1269657 C310.588913,25.9765076 308.994816,22.7713892 306.781072,20.5893196 Z M336.374691,15.7885271 C339.830577,15.7850774 343.215236,16.8951024 345.886926,19.5224849 C348.347096,21.9996544 349.586128,25.5581274 349.586128,29.1236025 C349.586128,32.6890776 348.347096,36.2484855 345.886926,38.725655 C343.301652,41.2685427 339.756468,42.4211421 336.374691,42.4647002 C332.875039,42.5097766 329.537842,41.3571772 326.862456,38.725655 C324.412119,36.2429186 323.163254,32.6855912 323.163254,29.1236025 C323.163254,25.5616138 324.412119,22.0052214 326.862456,19.5224849 C329.451672,16.9743586 333.024341,15.7918873 336.374691,15.7885271 Z M336.726797,17.9195881 L336.386811,17.9222207 C333.421444,17.8567157 330.59046,18.9351651 328.494511,21.1227491 C326.418694,23.2839809 325.277084,26.0658243 325.277084,29.12407 C325.277084,32.1823156 326.372011,34.964159 328.447829,37.1253909 L328.447829,37.1253909 L328.494511,37.2771973 C330.591013,39.4649058 333.454026,40.4026467 336.419854,40.3364218 C339.369653,40.4034078 342.215796,39.3135629 344.289133,37.1253909 C346.408595,34.8848924 347.453656,32.0120753 347.472298,29.1292729 C347.491272,26.1953072 346.446211,23.4030116 344.289133,21.1227491 C342.215481,18.935169 339.336429,17.8553179 336.386811,17.9222207 Z M381.293577,39.2590684 L361.212193,15.7885271 L359.098363,15.7885271 L359.098363,42.4559642 L361.212193,42.4559642 L361.212193,18.9890555 L381.293577,42.4559642 L383.407407,42.4595967 L383.407407,15.7921596 L381.293577,15.7885271 L381.293577,39.2590684 Z" id="LONDON" ></path>
            <path d="M286.642668,86.7957922 L294.462793,104.211489 L293.097374,104.211489 L290.416188,98.2288042 L282.149199,98.2288042 L279.468014,104.211489 L278.102595,104.211489 L285.873068,86.7957922 L286.642668,86.7957922 Z M192.339823,86.8591681 L192.339823,103.058048 L200.730941,103.058048 L200.730941,104.148113 L191.048882,104.148113 L191.048882,86.8591681 L192.339823,86.8591681 Z M371.834446,86.8591681 L374.80249,86.8600247 C376.547138,86.8695188 377.50787,86.963552 378.512585,87.416876 C380.026958,88.050635 380.995164,89.5970069 380.995164,91.3208313 C380.995164,93.8305169 379.207707,94.7938305 378.562236,95.1740859 C381.739938,95.8585456 382.484712,97.8865744 382.484712,99.5343477 C382.484712,101.232822 381.690286,102.398938 380.821383,102.981997 C379.367695,103.939677 378.334743,104.128553 376.572269,104.146583 L376.253437,104.148113 L371.834446,104.148113 L371.834446,86.8591681 Z M375.483838,95.9852974 L373.150213,95.9852974 L373.150213,103.032697 L376.271497,103.032343 C377.681867,103.025074 381.044816,102.868804 381.044816,99.5089973 C381.044816,98.6470851 380.796558,97.7851729 380.002132,97.0753629 C379.13323,96.2641514 378.040895,95.9852974 375.483838,95.9852974 Z M286.270281,88.9759231 L282.620889,97.088038 L289.894847,97.088038 L286.270281,88.9759231 Z M374.416329,87.9999343 L373.150213,87.9999343 L373.150213,94.8698816 L374.94587,94.8695347 C376.442847,94.8624232 379.580094,94.7095259 379.580094,91.4222328 C379.580094,90.2814666 379.083578,89.2167515 378.264327,88.7097443 C377.59403,88.3041386 376.65065,87.9999343 374.416329,87.9999343 Z" id="LABS"  fill-rule="nonzero"></path>
        </g>
    </symbol>
</svg>